<svg width="227" height="40" viewBox="0 0 227 40" fill="none" xmlns="http://www.w3.org/2000/svg">
<path d="M18.847 4.42976C19.2747 3.40514 20.7263 3.40514 21.154 4.42976L24.8233 13.2196C24.9943 13.6291 25.3695 13.9172 25.8092 13.9767L35.4798 15.2856C36.5634 15.4323 36.9497 16.8014 36.1025 17.4928L28.6354 23.5862C28.2662 23.8874 28.1004 24.3723 28.2079 24.8364L30.5952 35.1529C30.8537 36.2699 29.5977 37.1165 28.6593 36.4579L20.7186 30.8847C20.2877 30.5822 19.7134 30.5822 19.2824 30.8847L11.3417 36.4579C10.4033 37.1165 9.14731 36.2699 9.40576 35.153L11.7929 24.8364C11.9003 24.3723 11.7346 23.8874 11.3654 23.5862L3.89852 17.4928C3.05131 16.8014 3.43756 15.4323 4.52118 15.2856L14.1918 13.9767C14.6316 13.9172 15.0068 13.6291 15.1777 13.2196L18.847 4.42976Z" fill="white"/>
<path d="M65.512 4.42976C65.9398 3.40514 67.3914 3.40514 67.8191 4.42976L71.4884 13.2196C71.6593 13.6291 72.0345 13.9172 72.4742 13.9767L82.1449 15.2856C83.2285 15.4323 83.6147 16.8014 82.7675 17.4928L75.3004 23.5862C74.9313 23.8874 74.7655 24.3723 74.8729 24.8364L77.2602 35.1529C77.5187 36.2699 76.2627 37.1165 75.3243 36.4579L67.3837 30.8847C66.9527 30.5822 66.3784 30.5822 65.9475 30.8847L58.0067 36.4579C57.0683 37.1165 55.8123 36.2699 56.0708 35.153L58.458 24.8364C58.5654 24.3723 58.3996 23.8874 58.0305 23.5862L50.5636 17.4928C49.7164 16.8014 50.1026 15.4323 51.1862 15.2856L60.8569 13.9767C61.2966 13.9172 61.6718 13.6291 61.8427 13.2196L65.512 4.42976Z" fill="white"/>
<path d="M112.179 4.42976C112.607 3.40514 114.058 3.40514 114.486 4.42976L118.155 13.2196C118.326 13.6291 118.702 13.9172 119.141 13.9767L128.812 15.2856C129.895 15.4323 130.282 16.8014 129.434 17.4928L121.967 23.5862C121.598 23.8874 121.432 24.3723 121.54 24.8364L123.927 35.1529C124.186 36.2699 122.93 37.1165 121.991 36.4579L114.051 30.8847C113.62 30.5822 113.045 30.5822 112.614 30.8847L104.674 36.4579C103.735 37.1165 102.479 36.2699 102.738 35.153L105.125 24.8364C105.232 24.3723 105.067 23.8874 104.697 23.5862L97.2306 17.4928C96.3833 16.8014 96.7696 15.4323 97.8532 15.2856L107.524 13.9767C107.964 13.9172 108.339 13.6291 108.51 13.2196L112.179 4.42976Z" fill="white"/>
<path d="M158.847 4.42976C159.275 3.40514 160.726 3.40514 161.154 4.42976L164.823 13.2196C164.994 13.6291 165.369 13.9172 165.809 13.9767L175.48 15.2856C176.563 15.4323 176.95 16.8014 176.102 17.4928L168.635 23.5862C168.266 23.8874 168.1 24.3723 168.208 24.8364L170.595 35.1529C170.854 36.2699 169.598 37.1165 168.659 36.4579L160.719 30.8847C160.288 30.5822 159.713 30.5822 159.282 30.8847L151.342 36.4579C150.403 37.1165 149.147 36.2699 149.406 35.153L151.793 24.8364C151.9 24.3723 151.735 23.8874 151.365 23.5862L143.899 17.4928C143.051 16.8014 143.438 15.4323 144.521 15.2856L154.192 13.9767C154.632 13.9172 155.007 13.6291 155.178 13.2196L158.847 4.42976Z" fill="white"/>
<path d="M205.513 4.42996C205.941 3.40534 207.392 3.40534 207.82 4.42995L211.489 13.2198C211.66 13.6293 212.035 13.9174 212.475 13.9769L222.146 15.2858C223.229 15.4325 223.616 16.8016 222.768 17.493L215.301 23.5864C214.932 23.8876 214.766 24.3725 214.874 24.8366L217.261 35.1531C217.52 36.2701 216.264 37.1167 215.325 36.4581L207.385 30.8849C206.954 30.5824 206.379 30.5824 205.948 30.8849L198.008 36.4581C197.069 37.1167 195.813 36.2701 196.072 35.1532L198.459 24.8366C198.566 24.3725 198.401 23.8876 198.031 23.5864L190.565 17.493C189.717 16.8016 190.104 15.4325 191.187 15.2858L200.858 13.9769C201.298 13.9174 201.673 13.6293 201.844 13.2198L205.513 4.42996Z" stroke="white" stroke-width="3.33333" stroke-miterlimit="3.3292" stroke-linecap="round" stroke-linejoin="round"/>
<path d="M210.001 32.5V9.16666L207.501 4.16666H205.001L200.001 14.1667L190.834 16.6667L198.334 24.1667L196.667 36.6667L206.667 30L210.001 32.5Z" fill="white"/>
</svg>
